<?xml version="1.0" standalone="no"?>
<!DOCTYPE svg PUBLIC "-//W3C//DTD SVG 20010904//EN"
 "http://www.w3.org/TR/2001/REC-SVG-20010904/DTD/svg10.dtd">
<svg version="1.0" xmlns="http://www.w3.org/2000/svg"
 width="700.000000pt" height="700.000000pt" viewBox="0 0 700.000000 700.000000"
 preserveAspectRatio="xMidYMid meet">
<metadata>
Created by potrace 1.11, written by Peter Selinger 2001-2013
</metadata>
<g transform="translate(0.000000,700.000000) scale(0.100000,-0.100000)"
fill="#000000" stroke="none">
<path d="M0 3500 l0 -3500 3500 0 3500 0 0 3500 0 3500 -3500 0 -3500 0 0
-3500z m3764 2809 c587 -119 1023 -592 1096 -1189 14 -118 14 -3096 -1 -3228
-67 -614 -522 -1100 -1131 -1208 -122 -21 -334 -21 -456 0 -609 108 -1064 594
-1131 1208 -15 132 -15 3110 -1 3228 24 193 95 400 193 560 220 360 601 601
1025 650 107 12 289 3 406 -21z"/>
<path d="M3325 3075 c-433 -76 -767 -402 -857 -835 -27 -126 -21 -344 12 -465
76 -282 251 -510 497 -651 250 -142 536 -177 811 -98 362 104 632 382 734 759
28 104 35 324 14 438 -78 413 -377 731 -786 836 -111 29 -312 36 -425 16z"/>
</g>
</svg>
